# xmcd
#
# Track frame offsets:
#  150
#  25808
#  43330
#  74235
#  95398
#  116318
#  137555
#  163720
#
# Disc length: 2492 seconds
#
# Revision: 0
# Processed by: cddbd v1.5.1PL2 Copyright (c) Steve Scherf et al.
# Submitted via: Collectorz.com_Music_Collector 6.10
#
DISCID=6d09ba08
DTITLE=Little Jimmy Valentine and The Heart Murmurs - Live At The Zoo Bar
DYEAR=1989
DGENRE=Blues
TTITLE0=Rough Dried Woman
TTITLE1=Dust My Broom
TTITLE2=Outskirts Of Town
TTITLE3=What Have I Done (cuckoo)
TTITLE4=Barefoot Rock
TTITLE5=One Way Out
TTITLE6=Dream
TTITLE7=Shake Rattle and Roll
EXTD=
EXTT0=
EXTT1=
EXTT2=
EXTT3=
EXTT4=
EXTT5=
EXTT6=
EXTT7=
PLAYORDER=
